<?xml version="1.0" encoding="UTF-8"?>
<!-- Generator: Adobe Illustrator 24.3.0, SVG Export Plug-In . SVG Version: 6.00 Build 0)  -->
<svg version="1.1" id="Layer_1" xmlns="http://www.w3.org/2000/svg" xmlns:xlink="http://www.w3.org/1999/xlink" x="0px" y="0px" viewBox="0 0 148.3 62.2" style="enable-background:new 0 0 148.3 62.2;" xml:space="preserve">
<style type="text/css">
	.st0{stroke:#000000;stroke-miterlimit:10;}
	.st1{font-family:'Arial-BoldMT';}
	.st2{font-size:5.2711px;}
</style>
<g>
	<g>
		<path class="st0" d="M57.5,10.2c0,0.7-0.8,1.7-2.3,3.1c-1.5,1.3-3.4,2.6-5.6,3.8c-0.3,0.8-0.7,2.4-1.3,4.6    c-0.9,3.5-1.7,5.9-2.5,7.4s-2,2.9-3.7,4.4c-4.9,4.3-10.5,6.5-16.6,6.5c-1.8,0-3.3-0.3-4.7-0.8c-0.8,1.4-1.1,2.5-1.1,3.5    c0,1.3,0.5,2.4,1.4,3.5c0.1,0.1,0.1,0.2,0.1,0.3s-0.1,0.2-0.2,0.2c-0.4,0-0.8-0.5-1.2-1.4c-0.4-0.9-0.6-1.8-0.6-2.6    c0-1.2,0.4-2.4,1.2-3.8c-3.3-1.6-5-4.3-5-8.2c0-2.5,0.8-5,2.4-7.4c1.6-2.5,3.8-4.7,6.7-6.7c3.7-2.5,7.3-3.8,10.9-3.8    c2,0,3.5,0.5,4.7,1.5s1.7,2.4,1.7,4.1c0,0.9-0.1,1.9-0.4,2.9c2.3-1.5,4.4-2.7,6.2-3.7c1.1-2.3,2.6-4.3,4.3-6    c1.7-1.7,3.2-2.5,4.5-2.5C57.1,9.4,57.5,9.6,57.5,10.2z M41.3,18.5c0-1.5-0.5-2.8-1.6-3.7c-1-0.9-2.4-1.4-4.2-1.4    c-4.3,0-8.4,2.1-12.4,6.2s-6,8.4-6,12.8c0,2.9,1.1,5,3.5,6.2c1.1-1.7,2.6-3.5,4.6-5.4c-1-0.8-1.6-1.8-1.6-3c0-0.9,0.3-1.6,0.9-2.3    c0.6-0.6,1.3-0.9,2.2-0.9c1.1,0,1.6,0.5,1.6,1.4c0,0.5-0.2,0.9-0.6,1.2c-0.4,0.4-0.9,0.5-1.4,0.5c-0.8,0-1.2-0.4-1.2-1    c0-0.2,0.1-0.5,0.2-0.7c0.1-0.2,0.1-0.3,0.1-0.3c0-0.1,0-0.1-0.1-0.1c-0.3,0-0.5,0.3-0.8,0.8s-0.4,1.1-0.4,1.6    c0,1,0.5,1.8,1.5,2.6c3.2-3.1,8.2-6.8,15.1-11C41.1,20.6,41.3,19.5,41.3,18.5z M47.2,18.4c-1.8,1.1-3.9,2.3-6.1,3.7    c-1,3.1-2.9,5.9-5.5,8.2c-2.6,2.4-5.1,3.5-7.6,3.5c-0.7,0-1.5-0.2-2.4-0.5c-1.8,1.7-3.3,3.5-4.6,5.5c1.3,0.5,2.8,0.8,4.4,0.8    c3,0,5.9-0.8,8.7-2.4s5.2-3.8,7.2-6.5c0.9-1.3,1.7-2.5,2.2-3.6c0.5-1.1,1.4-3.2,2.6-6.3C46.5,20.1,46.8,19.3,47.2,18.4z     M40.5,22.5l-1.6,1c-6,3.8-10.3,7-12.9,9.6c0.7,0.3,1.4,0.5,2.1,0.5c2.2,0,4.5-1.1,7-3.2C37.5,28.2,39.3,25.5,40.5,22.5z M57,10.3    c0-0.4-0.2-0.5-0.7-0.5c-1.1,0-2.2,0.7-3.5,2.1s-2.3,3-3,4.8c2.1-1.2,3.8-2.4,5.2-3.6C56.3,11.8,57,10.9,57,10.3z"/>
		<path class="st0" d="M67.8,32.2c0,0.2-0.5,0.7-1.5,1.7c-1.4,1.3-2.6,2-3.6,2c-0.7,0-1.3-0.3-1.8-1.1c-1.4,1.8-2.6,3.1-3.5,3.8    s-1.8,1-2.7,1c-0.8,0-1.5-0.2-2-0.8S52,37.8,52,37c0-0.6,0.2-1.4,0.6-2.2c-2.4,3.2-4.2,4.9-5.6,4.9c-0.7,0-1.3-0.3-1.7-0.8    c-0.5-0.5-0.7-1.1-0.7-1.9c0-0.8,0.5-2,1.4-3.5l4-6.2c0.6,0.1,1.1,0.2,1.4,0.2c0.3,0,0.8,0,1.6-0.2l-5.4,8.2    c-0.9,1.3-1.3,2.2-1.3,2.8c0,0.7,0.3,1,1,1c0.7,0,1.8-0.7,3.2-2.2c1.4-1.5,2.8-3.3,4.2-5.5l2.7-4.3c0.9,0.1,1.4,0.1,1.6,0.1    c0.5,0,1,0,1.4-0.1l-5,7.5c-1.1,1.7-1.6,2.8-1.6,3.5c0,0.7,0.4,1.1,1.2,1.1c1.6,0,3.6-1.6,5.9-4.8c-0.1-0.5-0.1-1-0.1-1.2    c0-1.3,0.4-2.7,1.3-4.1s1.7-2.1,2.6-2.1c0.4,0,0.6,0.2,0.6,0.7c0,1.2-1.3,3.5-3.9,6.8c0.4,0.7,0.9,1,1.6,1c1.2,0,2.7-1,4.4-3    C67.4,32.2,67.6,32.1,67.8,32.2C67.8,32.1,67.8,32.1,67.8,32.2z"/>
		<path class="st0" d="M75.2,32.2c0,0-0.1,0.2-0.2,0.3l-1,1.3c-3,3.9-5.3,5.8-6.8,5.8c-0.8,0-1.4-0.2-1.9-0.7    c-0.5-0.5-0.8-1.1-0.8-1.8c0-0.9,0.6-2.2,1.6-3.9l3.7-5.9c0.5,0.1,0.9,0.2,1.2,0.2c0.4,0,1,0,1.8-0.2l-5.4,8.3    c-0.8,1.2-1.2,2.1-1.2,2.8c0,0.7,0.4,1,1.1,1c1.4,0,3.9-2.3,7.4-7c0.1-0.2,0.2-0.2,0.2-0.2C75.2,32.1,75.2,32.1,75.2,32.2z     M74.9,23.1c0,0.5-0.2,1-0.7,1.5c-0.5,0.5-1,0.7-1.5,0.7c-0.7,0-1.1-0.3-1.1-1c0-0.5,0.2-1,0.7-1.4s1-0.7,1.6-0.7    C74.5,22.1,74.9,22.4,74.9,23.1z"/>
		<path class="st0" d="M88.1,32.2c0,0.1-0.5,0.7-1.4,1.6c-1.2,1.2-2.3,1.9-3.4,1.9c-1.2,0-1.8-0.7-1.8-2c0-0.4,0.1-0.9,0.3-1.6    c-1,0.8-1.8,1.6-2.4,2.4c-0.6,0.8-1.7,2.4-3.2,4.9c-0.8-0.1-1.3-0.1-1.5-0.1c-0.1,0-0.6,0-1.4,0.1l3.9-5.9c1.9-3,2.9-4.8,2.9-5.5    c0-0.4-0.2-0.6-0.6-0.6c-0.9,0-2.5,1.6-4.8,4.8c-0.1,0.2-0.3,0.3-0.4,0.3c-0.1,0-0.1-0.1-0.1-0.1c0-0.1,0.1-0.1,0.1-0.2l0.4-0.5    c2.4-3,4.1-4.5,5-4.5c1.3,0,1.9,0.8,1.9,2.3c0,1.1-0.7,2.6-1.9,4.5c0.8-0.9,1.6-1.6,2.3-2.2c0.6-1.3,1.3-2.4,2.2-3.3    s1.7-1.3,2.4-1.3c0.5,0,0.7,0.2,0.7,0.6c0,0.7-1.1,1.7-3.3,3c-0.3,0.2-0.9,0.5-1.6,0.9l-0.3,0.2c-0.2,0.7-0.3,1.2-0.3,1.7    c0,1.2,0.5,1.9,1.5,1.9c1.2,0,2.6-1,4.1-2.9c0.3-0.3,0.5-0.5,0.6-0.5C88,32.1,88.1,32.1,88.1,32.2z"/>
		<path class="st0" d="M99.8,16.5c-6.7,10.3-10.5,16.4-11.6,18.2c-1.1,1.8-1.7,3-1.7,3.6c0,0.7,0.3,1,0.9,1c1.3,0,3.8-2.3,7.3-7    c0.1-0.2,0.2-0.2,0.3-0.2c0.1,0,0.1,0.1,0.1,0.1c0,0.1-0.1,0.2-0.2,0.3l-1,1.3c-3,3.9-5.2,5.8-6.6,5.8c-0.7,0-1.2-0.2-1.7-0.7    s-0.7-1.1-0.7-1.8c0-0.8,0.2-1.6,0.6-2.4c0.4-0.8,1.8-3,4.1-6.6c2.9-4.4,5.3-8.3,7.2-11.6c0.5,0.1,0.9,0.2,1.3,0.2    C98.7,16.8,99.3,16.7,99.8,16.5z"/>
		<path class="st0" d="M109.4,32.2c0,0.2-0.9,1.2-2.6,3c-1.9,2-4.5,3.8-7.6,5.3l-1.2,2c-2.3,3.8-4.7,6.7-7.2,8.6    C88.2,53.1,86,54,84.1,54c-0.7,0-1.2-0.2-1.6-0.6c-0.4-0.4-0.7-0.9-0.7-1.4c0-3,3.7-6,11-9.2c0.6-0.3,1.5-0.7,2.7-1.2l0.4-0.2    l4.2-6.9c-1.7,2.1-2.8,3.5-3.6,4.2c-0.8,0.7-1.5,1-2.3,1c-0.7,0-1.2-0.3-1.7-0.8s-0.7-1.1-0.7-1.8c0-0.8,0.6-2.2,1.7-3.9l3.7-5.8    c0.4,0.1,0.8,0.1,1.3,0.1c0.4,0,1,0,1.7-0.2l-4.7,7.1c-1.3,2-2,3.3-2,3.9c0,0.7,0.3,1,1,1c1.7,0,4.3-2.8,7.9-8.5l2.2-3.5    c0.4,0.1,0.8,0.1,1.3,0.1c0.4,0,1,0,1.6-0.2c-2,2.9-4.6,7.2-8,12.8c1.9-0.9,3.6-1.9,4.9-3c1.3-1.1,2.8-2.6,4.5-4.6    c0.2-0.3,0.4-0.4,0.4-0.4C109.3,32.1,109.4,32.2,109.4,32.2z M95.6,41.8c-0.2,0.1-1.2,0.5-2.7,1.3c-7.2,3.3-10.8,6.3-10.8,9    c0,1.1,0.7,1.7,2,1.7c1.7,0,3.3-0.8,5-2.5s3.7-4.7,6.2-8.9L95.6,41.8z"/>
		<path class="st0" d="M121.7,17.1c0,1-0.6,2.1-1.8,3.3c-0.4,0.4-1,0.9-1.8,1.3s-1.2,0.7-1.6,0.7c-0.1,0-0.1,0-0.1-0.1    c0-0.1,0.1-0.1,0.2-0.2c1.7-0.6,2.6-1.3,2.6-2c0-0.1-0.1-0.1-0.2-0.1c-0.7,0-1.1-0.3-1.1-1c0-0.6,0.3-1.2,1-1.8s1.2-1,1.8-1    C121.3,16.1,121.7,16.5,121.7,17.1z"/>
		<path class="st0" d="M126.1,23.6c0,0.6-1,1.8-3,3.5c-0.1,0.5-0.1,0.9-0.1,1.2c0,0.9,0.4,2.2,1.3,4.1c0.4,0.9,0.6,1.7,0.6,2.3    c0,1.3-0.7,2.5-2.1,3.5s-3,1.5-4.9,1.5c-1.1,0-1.9-0.3-2.6-0.8s-1-1.3-1-2.3c0-1.1,0.4-2.2,1.3-3.2s1.7-1.6,2.6-1.6    c0.2,0,0.3,0,0.4,0.1l1.9-2.2c0.6-0.6,1.3-1.5,2.3-2.6c0.3-1,0.7-1.9,1.2-2.7c0.6-0.7,1.1-1.1,1.6-1.1    C126,23.2,126.1,23.4,126.1,23.6z M122.8,32.4c0-0.4,0-0.9-0.1-1.3c0-0.4-0.1-1.1-0.1-1.9c0-0.7,0-1.2,0.1-1.7    c-0.9,1-2.2,2.5-3.8,4.4c0.3,0.2,0.4,0.5,0.4,0.9c0,0.9-0.8,1.5-2.3,1.8c-0.6,0.1-1.2,0.5-1.6,0.9c-0.4,0.5-0.7,1-0.7,1.6    c0,0.6,0.2,1.1,0.7,1.5s1,0.6,1.7,0.6c1.3,0,2.6-0.7,3.8-2.2C122.2,35.6,122.8,34,122.8,32.4z"/>
	</g>
</g>
<text transform="matrix(1 0 0 1 127.6445 13.882)" class="st1 st2">TM</text>
</svg>